<svg width="32" height="34" viewBox="0 0 32 34" fill="none" xmlns="http://www.w3.org/2000/svg">
<path d="M18.0433 15.895C18.0999 15.895 18.1283 15.895 18.1849 15.8667L18.6666 15.5833C18.8083 15.4983 18.8366 15.3283 18.7799 15.1867C18.6949 15.045 18.5249 15.0167 18.3833 15.0733L17.9016 15.3567C17.7599 15.4417 17.7316 15.6117 17.7883 15.7533C17.8449 15.8383 17.9299 15.895 18.0433 15.895Z" fill="#ffffff"/>
<path d="M20.5083 14.4783C20.5649 14.4783 20.5933 14.4783 20.6499 14.45L21.1316 14.1667C21.2733 14.0817 21.3016 13.9117 21.2449 13.77C21.1599 13.6283 20.9899 13.6 20.8483 13.6567L20.3666 13.94C20.2249 14.025 20.1966 14.195 20.2533 14.3367C20.3099 14.4217 20.3949 14.4783 20.5083 14.4783Z" fill="#ffffff"/>
<path d="M13.1416 15.3L12.6599 15.0167C12.5183 14.9317 12.3483 14.9883 12.2633 15.13C12.1783 15.2717 12.2349 15.4417 12.3766 15.5267L12.8583 15.81C12.9149 15.8383 12.9433 15.8383 12.9999 15.8383C13.0849 15.8383 13.1983 15.7817 13.2549 15.6967C13.3116 15.555 13.2549 15.385 13.1416 15.3Z" fill="#ffffff"/>
<path d="M10.6483 13.9117L10.1666 13.6283C10.0249 13.5433 9.85493 13.6 9.76993 13.7417C9.68493 13.8833 9.7416 14.0533 9.88327 14.1383L10.3649 14.4217C10.4216 14.45 10.4499 14.45 10.5066 14.45C10.5916 14.45 10.7049 14.3933 10.7616 14.3083C10.8466 14.1667 10.7899 13.9967 10.6483 13.9117Z" fill="#ffffff"/>
<path d="M15.5783 22.3833C15.4083 22.3833 15.2949 22.4967 15.2949 22.6667V23.2333C15.2949 23.4033 15.4083 23.5167 15.5783 23.5167C15.7483 23.5167 15.8616 23.4033 15.8616 23.2333V22.6667C15.8616 22.4967 15.7483 22.3833 15.5783 22.3833Z" fill="#ffffff"/>
<path d="M15.5783 19.55C15.4083 19.55 15.2949 19.6633 15.2949 19.8333V20.4C15.2949 20.57 15.4083 20.6833 15.5783 20.6833C15.7483 20.6833 15.8616 20.57 15.8616 20.4V19.8333C15.8616 19.6633 15.7483 19.55 15.5783 19.55Z" fill="#ffffff"/>
<path d="M15.5783 14.4217C15.7483 14.4217 15.8616 14.3083 15.8616 14.1383V13.5717C15.8616 13.4017 15.7483 13.2883 15.5783 13.2883C15.4083 13.2883 15.2949 13.4017 15.2949 13.5717V14.1383C15.2949 14.28 15.4083 14.4217 15.5783 14.4217Z" fill="#ffffff"/>
<path d="M15.5783 11.5883C15.7483 11.5883 15.8616 11.475 15.8616 11.305V10.7383C15.8616 10.5683 15.7483 10.455 15.5783 10.455C15.4083 10.455 15.2949 10.5683 15.2949 10.7383V11.305C15.2949 11.4467 15.4083 11.5883 15.5783 11.5883Z" fill="#ffffff"/>
<path d="M21.1599 19.805L20.6783 19.5217C20.5366 19.4367 20.3666 19.4933 20.2816 19.635C20.1966 19.7767 20.2533 19.9467 20.3949 20.0317L20.8766 20.315C20.9333 20.3433 20.9616 20.3433 21.0183 20.3433C21.1033 20.3433 21.2166 20.2867 21.2733 20.2017C21.3299 20.06 21.3016 19.89 21.1599 19.805Z" fill="#ffffff"/>
<path d="M18.6949 18.4167L18.2133 18.1334C18.0716 18.0484 17.9016 18.105 17.8166 18.2467C17.7316 18.3884 17.7883 18.5584 17.9299 18.6434L18.4116 18.9267C18.4683 18.955 18.4966 18.955 18.5533 18.955C18.6383 18.955 18.7516 18.8984 18.8083 18.8134C18.8649 18.6717 18.8083 18.5017 18.6949 18.4167Z" fill="#ffffff"/>
<path d="M10.3933 19.6067L9.91159 19.89C9.76993 19.975 9.71326 20.145 9.79826 20.2867C9.85493 20.3717 9.93993 20.4283 10.0533 20.4283C10.1099 20.4283 10.1383 20.4283 10.1949 20.4L10.6766 20.1167C10.8183 20.0317 10.8749 19.8617 10.7899 19.72C10.7049 19.5783 10.5066 19.5217 10.3933 19.6067Z" fill="#ffffff"/>
<path d="M12.8583 18.2183L12.3766 18.5017C12.2349 18.5867 12.1783 18.7567 12.2633 18.8983C12.3199 18.9833 12.4049 19.04 12.5183 19.04C12.5749 19.04 12.6033 19.04 12.6599 19.0117L13.1416 18.7283C13.2833 18.6433 13.3399 18.4733 13.2549 18.3317C13.1699 18.19 12.9999 18.1333 12.8583 18.2183Z" fill="#ffffff"/>
<path d="M28.6399 17C29.7449 15.5267 30.5383 14.0533 30.9066 12.665C31.3316 11.05 31.2183 9.66167 30.5383 8.5C29.2349 6.29 26.0616 5.44 22.0949 5.89333C20.5083 2.295 18.1849 0 15.5783 0C12.9716 0 10.6483 2.295 9.06159 5.89333C5.09493 5.44 1.9216 6.29 0.618262 8.5C-0.0617378 9.66167 -0.175071 11.05 0.249929 12.665C0.618262 14.0817 1.4116 15.555 2.5166 17C1.4116 18.4733 0.618262 19.9467 0.249929 21.335C-0.175071 22.95 -0.0617378 24.3383 0.618262 25.5C1.69493 27.3417 4.0466 28.22 7.07826 28.22C7.72993 28.22 8.38159 28.1633 9.08993 28.1067C10.6766 31.705 12.9999 34 15.6066 34C18.2133 34 20.5366 31.705 22.1233 28.1067C22.8033 28.1917 23.4833 28.22 24.1349 28.22C27.1666 28.22 29.5183 27.3133 30.5949 25.5C31.2749 24.3383 31.3883 22.95 30.9633 21.335C30.5383 19.9467 29.7733 18.4733 28.6399 17ZM24.1349 6.31833C26.9399 6.31833 29.0933 7.14 30.0566 8.81167C30.6516 9.83167 30.7649 11.0783 30.3683 12.5233C30.0283 13.7983 29.2916 15.1867 28.2716 16.5467C27.3649 15.4133 26.2316 14.28 24.9566 13.2033C25.0699 12.9767 25.1549 12.7217 25.1549 12.4667C25.1549 11.6167 24.4466 10.9083 23.5966 10.9083C23.2849 9.29333 22.8316 7.79167 22.2933 6.43167C22.9449 6.34667 23.5399 6.31833 24.1349 6.31833ZM24.5883 21.505C24.5883 22.0433 24.1349 22.4967 23.5966 22.4967C23.0583 22.4967 22.6049 22.0433 22.6049 21.505C22.6049 20.9667 23.0583 20.5133 23.5966 20.5133C24.1349 20.5133 24.5883 20.9667 24.5883 21.505ZM23.5116 19.9467C22.6899 20.0033 22.0383 20.6833 22.0383 21.505C22.0383 21.76 22.0949 22.015 22.2083 22.2133C21.3866 22.78 20.5083 23.3467 19.6016 23.8567C18.6949 24.3667 17.7883 24.82 16.8816 25.245C16.5983 24.82 16.1166 24.5367 15.5783 24.5367C15.0399 24.5367 14.5583 24.82 14.2749 25.245C13.3683 24.82 12.4616 24.3667 11.5549 23.8567C10.6483 23.3467 9.76993 22.8083 8.94826 22.2133C9.06159 21.9867 9.11826 21.76 9.11826 21.505C9.11826 20.6833 8.4666 20.0033 7.64493 19.9467C7.55993 18.9833 7.50326 18.02 7.50326 17C7.50326 16.0083 7.55993 15.0167 7.64493 14.0533C8.4666 13.9967 9.11826 13.3167 9.11826 12.495C9.11826 12.24 9.06159 11.985 8.94826 11.7867C9.76993 11.22 10.6483 10.6533 11.5549 10.1433C12.4616 9.63333 13.3683 9.18 14.2749 8.755C14.5583 9.18 15.0399 9.46333 15.5783 9.46333C16.1166 9.46333 16.5983 9.18 16.8816 8.755C17.7883 9.18 18.6949 9.63333 19.6016 10.1433C20.5083 10.6533 21.3583 11.1917 22.1799 11.7583C22.0949 11.9567 22.0383 12.1833 22.0383 12.4383C22.0383 13.26 22.6899 13.94 23.5116 13.9967C23.5966 14.96 23.6533 15.98 23.6533 17C23.6249 17.9917 23.5966 18.9833 23.5116 19.9467ZM16.5699 26.095C16.5699 26.6333 16.1166 27.0867 15.5783 27.0867C15.0399 27.0867 14.5866 26.6333 14.5866 26.095C14.5866 25.5567 15.0399 25.1033 15.5783 25.1033C16.1166 25.1033 16.5699 25.5567 16.5699 26.095ZM7.55993 20.5133C8.09826 20.5133 8.5516 20.9667 8.5516 21.505C8.5516 22.0433 8.09826 22.4967 7.55993 22.4967C7.0216 22.4967 6.56826 22.0433 6.56826 21.505C6.56826 20.9667 6.99326 20.5133 7.55993 20.5133ZM6.56826 12.495C6.56826 11.9567 7.0216 11.5033 7.55993 11.5033C8.09826 11.5033 8.5516 11.9567 8.5516 12.495C8.5516 13.0333 8.09826 13.4867 7.55993 13.4867C6.99326 13.4867 6.56826 13.0333 6.56826 12.495ZM14.5866 7.905C14.5866 7.36667 15.0399 6.91333 15.5783 6.91333C16.1166 6.91333 16.5699 7.36667 16.5699 7.905C16.5699 8.44333 16.1166 8.89667 15.5783 8.89667C15.0399 8.89667 14.5866 8.44333 14.5866 7.905ZM23.5966 13.4583C23.0583 13.4583 22.6049 13.005 22.6049 12.4667C22.6049 11.9283 23.0583 11.475 23.5966 11.475C24.1349 11.475 24.5883 11.9283 24.5883 12.4667C24.5883 13.005 24.1633 13.4583 23.5966 13.4583ZM22.5199 11.305C21.6983 10.7383 20.7916 10.1717 19.8849 9.66167C18.9499 9.12333 18.0433 8.67 17.1083 8.245C17.1366 8.13167 17.1366 8.01833 17.1366 7.905C17.1366 7.82 17.1366 7.735 17.1083 7.62167C18.7233 7.055 20.2816 6.68667 21.7549 6.48833C22.2933 7.82 22.7466 9.35 23.0583 10.9933C22.8599 11.05 22.6899 11.1633 22.5199 11.305ZM14.0483 8.245C13.1133 8.67 12.2066 9.12333 11.2716 9.66167C10.3366 10.2 9.45826 10.7383 8.60826 11.3333C8.4666 11.1917 8.26826 11.0783 8.09826 11.0217C8.40993 9.35 8.86326 7.82 9.4016 6.48833C10.8466 6.68667 12.4333 7.08333 14.0483 7.62167C14.0199 7.70667 14.0199 7.79167 14.0199 7.905C14.0199 8.01833 14.0199 8.13167 14.0483 8.245ZM6.5116 13.6567C6.6816 13.7983 6.87993 13.9117 7.1066 13.9967C7.0216 14.96 6.96493 15.98 6.96493 17C6.96493 18.02 7.0216 19.04 7.1066 20.0033C6.87993 20.06 6.6816 20.1733 6.5116 20.3433C5.26493 19.2667 4.15993 18.1333 3.25326 17C4.15993 15.8667 5.26493 14.7333 6.5116 13.6567ZM8.60826 22.6667C9.45826 23.2617 10.3366 23.8 11.2716 24.3383C12.2066 24.8767 13.1133 25.33 14.0483 25.755C14.0199 25.8683 14.0199 25.9817 14.0199 26.095C14.0199 26.18 14.0199 26.265 14.0483 26.3783C12.4333 26.945 10.8749 27.3133 9.4016 27.5117C8.86326 26.1517 8.40993 24.6217 8.09826 22.9783C8.26826 22.9217 8.4666 22.8083 8.60826 22.6667ZM17.1083 25.755C18.0433 25.33 18.9499 24.8767 19.8849 24.3383C20.8199 23.8 21.6983 23.2617 22.5483 22.6667C22.6899 22.8083 22.8883 22.9217 23.0583 22.9783C22.7466 24.65 22.2933 26.18 21.7549 27.5117C20.3099 27.3133 18.7233 26.9167 17.1083 26.3783C17.1366 26.2933 17.1366 26.2083 17.1366 26.095C17.1366 25.9817 17.1366 25.8683 17.1083 25.755ZM24.6449 20.3433C24.4749 20.2017 24.2766 20.0883 24.0499 20.0033C24.1349 19.04 24.1916 18.02 24.1916 17C24.1916 15.9517 24.1349 14.9317 24.0499 13.94C24.2483 13.8833 24.4466 13.77 24.6166 13.6283C25.8916 14.705 26.9966 15.8383 27.9033 17C26.9966 18.1333 25.8916 19.2667 24.6449 20.3433ZM15.5783 0.566667C17.9299 0.566667 20.0549 2.66333 21.5283 5.97833C20.0833 6.17667 18.5249 6.57333 16.9099 7.11167C16.6266 6.65833 16.1449 6.34667 15.5499 6.34667C14.9833 6.34667 14.4733 6.65833 14.1899 7.11167C12.6033 6.57333 11.0449 6.17667 9.5716 5.97833C11.1016 2.66333 13.2266 0.566667 15.5783 0.566667ZM0.788262 12.495C0.391595 11.05 0.504929 9.80333 1.09993 8.78333C2.0916 7.11167 4.24493 6.29 7.0216 6.29C7.58826 6.29 8.2116 6.31833 8.83493 6.40333C8.2966 7.76333 7.84326 9.265 7.53159 10.9083C6.68159 10.9083 6.0016 11.6167 6.0016 12.4667C6.0016 12.7217 6.05826 12.9483 6.1716 13.175C4.8966 14.2517 3.7916 15.3567 2.88493 16.49C1.8366 15.1583 1.12826 13.7983 0.788262 12.495ZM1.09993 25.2167C0.504929 24.1967 0.391595 22.95 0.788262 21.505C1.12826 20.23 1.86493 18.8417 2.88493 17.4817C3.7916 18.615 4.8966 19.7483 6.1716 20.7967C6.05826 21.0233 6.0016 21.25 6.0016 21.505C6.0016 22.355 6.68159 23.0633 7.53159 23.0633C7.84326 24.7067 8.2966 26.2367 8.83493 27.5683C5.17993 27.9933 2.28993 27.2283 1.09993 25.2167ZM15.5783 33.4333C13.2266 33.4333 11.1016 31.3367 9.62826 28.0217C11.0733 27.8233 12.6316 27.4267 14.2466 26.8883C14.5299 27.3417 15.0116 27.6533 15.6066 27.6533C16.1733 27.6533 16.6833 27.3417 16.9666 26.8883C18.5533 27.4267 20.1116 27.8233 21.5849 28.0217C20.0549 31.3367 17.9299 33.4333 15.5783 33.4333ZM30.0566 25.2167C28.8666 27.2283 25.9766 27.9933 22.3216 27.5967C22.8599 26.2367 23.3133 24.735 23.6249 23.0917C24.4749 23.0633 25.1549 22.3833 25.1549 21.5333C25.1549 21.2783 25.0983 21.0517 24.9849 20.825C26.2599 19.7483 27.3649 18.6433 28.2716 17.51C29.2916 18.87 30.0283 20.2583 30.3683 21.5333C30.7649 22.95 30.6516 24.1967 30.0566 25.2167Z" fill="#ffffff"/>
<path d="M15.5783 15.4417C14.6999 15.4417 14.0199 16.15 14.0199 17C14.0199 17.85 14.7283 18.5583 15.5783 18.5583C16.4283 18.5583 17.1366 17.85 17.1366 17C17.1366 16.15 16.4566 15.4417 15.5783 15.4417ZM15.5783 17.9917C15.0399 17.9917 14.5866 17.5383 14.5866 17C14.5866 16.4617 15.0399 16.0083 15.5783 16.0083C16.1166 16.0083 16.5699 16.4617 16.5699 17C16.5699 17.5383 16.1166 17.9917 15.5783 17.9917Z" fill="#111111"/>
</svg>
