<svg width="68" height="66" viewBox="0 0 68 66" fill="none" xmlns="http://www.w3.org/2000/svg">
<path d="M11.6875 5.3197e-06H54.3125C55.8477 -0.00147875 57.3682 0.307566 58.7868 0.909452C60.2055 1.51134 61.4945 2.39425 62.58 3.50766C63.6656 4.62107 64.5265 5.94311 65.1133 7.39813C65.7001 8.85315 66.0014 10.4126 66 11.9872V54.0128C66.0014 55.5874 65.7001 57.1468 65.1133 58.6019C64.5265 60.0569 63.6656 61.3789 62.58 62.4923C61.4945 63.6057 60.2055 64.4887 58.7868 65.0905C57.3682 65.6924 55.8477 66.0015 54.3125 66H11.6875C10.1523 66.0015 8.63183 65.6924 7.21318 65.0905C5.79453 64.4887 4.50554 63.6057 3.41997 62.4923C2.33439 61.3789 1.47356 60.0569 0.886716 58.6019C0.299877 57.1468 -0.00144178 55.5874 5.18671e-06 54.0128V11.9872C-0.00144178 10.4126 0.299877 8.85315 0.886716 7.39813C1.47356 5.94311 2.33439 4.62107 3.41997 3.50766C4.50554 2.39425 5.79453 1.51134 7.21318 0.909452C8.63183 0.307566 10.1523 -0.00147875 11.6875 5.3197e-06V5.3197e-06Z" fill="#F0F0F0"/>
<path d="M46.2306 30.2578C46.0738 29.024 45.4395 27.9525 44.286 26.9852L43.6222 26.5063L43.1796 27.2256C42.589 28.2566 42.3239 29.4634 42.4234 30.6678C42.4802 31.3363 42.6793 31.982 43.0053 32.5556C42.2963 32.9434 41.5065 33.1314 40.7106 33.1017H20.1169L20.0768 33.357C19.8834 34.5945 19.8851 38.4559 22.2008 41.4228C23.9589 43.6778 26.5952 44.8221 30.0417 44.8221C37.4993 44.8221 43.0193 41.0948 45.605 34.3373C46.6209 34.3596 48.8111 34.3373 49.935 32.0189C49.9628 31.9667 50.0325 31.8232 50.2277 31.3834L50.3357 31.143L49.705 30.6864C49.0219 30.1888 47.4503 30.008 46.2393 30.2578H46.2306ZM36.5828 22H33.4464V25.0843H36.5828V22ZM36.5828 25.7012H33.4464V28.7855H36.5828V25.7012ZM32.8819 25.7012H29.7455V28.7855H32.8819V25.7012ZM29.1809 25.7012H26.0446V28.7855H29.1809V25.7012ZM25.48 29.4042H22.3437V32.4885H25.48V29.4042ZM29.1809 29.4042H26.0446V32.4885H29.1809V29.4042ZM32.8819 29.4042H29.7455V32.4885H32.8819V29.4042ZM36.5828 29.4042H33.4464V32.4885H36.5828V29.4042ZM40.2837 29.4042H37.1473V32.4885H40.2837V29.4042Z" fill="#1D63ED"/>
</svg>
