<svg width="66" height="66" viewBox="0 0 66 66" fill="none" xmlns="http://www.w3.org/2000/svg">
<path d="M11.6875 5.3197e-06H54.3125C55.8477 -0.00147875 57.3682 0.307566 58.7868 0.909452C60.2055 1.51134 61.4945 2.39425 62.58 3.50766C63.6656 4.62107 64.5265 5.94311 65.1133 7.39813C65.7001 8.85315 66.0014 10.4126 66 11.9872V54.0128C66.0014 55.5874 65.7001 57.1468 65.1133 58.6019C64.5265 60.0569 63.6656 61.3789 62.58 62.4923C61.4945 63.6057 60.2055 64.4887 58.7868 65.0905C57.3682 65.6924 55.8477 66.0015 54.3125 66H11.6875C10.1523 66.0015 8.63183 65.6924 7.21318 65.0905C5.79453 64.4887 4.50554 63.6057 3.41997 62.4923C2.33439 61.3789 1.47356 60.0569 0.886716 58.6019C0.299877 57.1468 -0.00144178 55.5874 5.18671e-06 54.0128V11.9872C-0.00144178 10.4126 0.299877 8.85315 0.886716 7.39813C1.47356 5.94311 2.33439 4.62107 3.41997 3.50766C4.50554 2.39425 5.79453 1.51134 7.21318 0.909452C8.63183 0.307566 10.1523 -0.00147875 11.6875 5.3197e-06Z" fill="#F0F0F0"/>
<path d="M56.8167 30.7953L35.2032 9.18357C33.9597 7.93881 31.941 7.93881 30.6959 9.18357L26.2081 13.672L31.9007 19.3648C33.2241 18.918 34.741 19.2176 35.7954 20.2723C36.8553 21.3335 37.1527 22.8634 36.6947 24.1913L42.1814 29.6782C43.5088 29.2207 45.0403 29.5163 46.1002 30.5781C47.5821 32.0596 47.5821 34.4602 46.1002 35.942C44.6182 37.4244 42.2177 37.4244 40.7348 35.942C39.6205 34.8269 39.3449 33.1897 39.9093 31.8168L34.7924 26.6996L34.7919 40.1653C35.1532 40.3442 35.4941 40.5829 35.7952 40.8826C37.2766 42.364 37.2766 44.7641 35.7952 46.2479C34.3133 47.7292 31.9118 47.7292 30.4315 46.2479C28.9498 44.7642 28.9498 42.3641 30.4315 40.8826C30.7976 40.5171 31.2213 40.2404 31.6734 40.055V26.4642C31.2211 26.2795 30.7979 26.0049 30.4312 25.6365C29.3089 24.515 29.0386 22.8678 29.6142 21.4896L24.0024 15.8767L9.18383 30.6954C7.93872 31.9411 7.93872 33.9598 9.18383 35.2047L30.796 56.8164C32.0403 58.0612 34.0582 58.0612 35.3042 56.8164L56.8165 35.3068C58.0612 34.0614 58.0612 32.0421 56.8165 30.7971" fill="#F05133"/>
</svg>
