<svg width="66" height="66" viewBox="0 0 66 66" fill="none" xmlns="http://www.w3.org/2000/svg">
<path d="M11.6875 5.3197e-06H54.3125C55.8477 -0.00147875 57.3682 0.307566 58.7868 0.909452C60.2055 1.51134 61.4945 2.39425 62.58 3.50766C63.6656 4.62107 64.5265 5.94311 65.1133 7.39813C65.7001 8.85315 66.0014 10.4126 66 11.9872V54.0128C66.0014 55.5874 65.7001 57.1468 65.1133 58.6019C64.5265 60.0569 63.6656 61.3789 62.58 62.4923C61.4945 63.6057 60.2055 64.4887 58.7868 65.0905C57.3682 65.6924 55.8477 66.0015 54.3125 66H11.6875C10.1523 66.0015 8.63183 65.6924 7.21318 65.0905C5.79453 64.4887 4.50554 63.6057 3.41997 62.4923C2.33439 61.3789 1.47356 60.0569 0.886716 58.6019C0.299877 57.1468 -0.00144178 55.5874 5.18671e-06 54.0128V11.9872C-0.00144178 10.4126 0.299877 8.85315 0.886716 7.39813C1.47356 5.94311 2.33439 4.62107 3.41997 3.50766C4.50554 2.39425 5.79453 1.51134 7.21318 0.909452C8.63183 0.307566 10.1523 -0.00147875 11.6875 5.3197e-06Z" fill="#F0F0F0"/>
<path d="M32.8533 57.75C32.1904 57.75 31.5321 57.5761 30.9509 57.2415L24.8955 53.6565C23.9911 53.1507 24.4324 52.9718 24.7307 52.8687C25.9366 52.4465 26.1813 52.3511 27.4685 51.6201C27.6038 51.5429 27.7809 51.5702 27.9193 51.6519L32.5713 54.4124C32.7393 54.5032 32.9777 54.5032 33.1334 54.4124L51.2719 43.9425C51.4399 43.8471 51.5489 43.6519 51.5489 43.4521V22.5213C51.5489 22.3125 51.4399 22.1263 51.2683 22.0219L33.1371 11.561C32.9691 11.4611 32.7466 11.4611 32.5786 11.561L14.451 22.0219C14.2753 22.1218 14.1636 22.317 14.1636 22.5168V43.4476C14.1636 43.6474 14.2725 43.8381 14.4451 43.9334L19.4122 46.8029C22.1091 48.1513 23.7572 46.5622 23.7572 44.964V24.3057C23.7572 24.0105 23.9888 23.7835 24.2839 23.7835H26.5813C26.8674 23.7835 27.1035 24.0105 27.1035 24.3057V44.9731C27.1035 48.5691 25.142 50.6349 21.7323 50.6349C20.6835 50.6349 19.8571 50.6349 17.5506 49.4998L12.7924 46.7575C11.6165 46.0764 10.89 44.8051 10.89 43.4476V22.5168C10.89 21.1547 11.6165 19.8834 12.7924 19.2114L30.9491 8.73695C32.0978 8.08768 33.6233 8.08768 34.7629 8.73695L52.8969 19.216C54.0683 19.8925 54.7993 21.1592 54.7993 22.5213V43.4521C54.7993 44.8097 54.0683 46.0764 52.8969 46.7575L34.7629 57.232C34.1818 57.5679 33.5234 57.7405 32.8515 57.7405" fill="#689F63"/>
<path d="M38.456 43.3272C30.5196 43.3272 28.8555 39.6841 28.8555 36.6284C28.8555 36.3379 29.0898 36.1063 29.3808 36.1063H31.7236C31.9824 36.1063 32.2004 36.2947 32.2412 36.5503C32.5954 38.9376 33.6487 40.1417 38.4478 40.1417C42.2708 40.1417 43.8962 39.2782 43.8962 37.2509C43.8962 36.0841 43.4331 35.2169 37.4944 34.6357C32.5273 34.1453 29.458 33.0511 29.458 29.0784C29.458 25.4189 32.5454 23.2395 37.7168 23.2395C43.5239 23.2395 46.4025 25.2554 46.7657 29.5869C46.7793 29.7367 46.7248 29.882 46.6249 29.991C46.525 30.0954 46.3843 30.159 46.239 30.159H43.8826C43.6374 30.159 43.424 29.9864 43.3741 29.7503C42.8065 27.2395 41.4354 26.4359 37.7078 26.4359C33.5352 26.4359 33.0494 27.8888 33.0494 28.9785C33.0494 30.2997 33.6215 30.6856 39.2515 31.4302C44.827 32.1703 47.474 33.2146 47.474 37.1329C47.474 41.0829 44.1777 43.3485 38.4297 43.3485L38.456 43.3272Z" fill="#689F63"/>
</svg>
