<svg width="67" height="66" viewBox="0 0 67 66" fill="none" xmlns="http://www.w3.org/2000/svg">
<g clip-path="url(#clip0_24_1660)">
<path d="M12.1875 5.3197e-06H54.8125C56.3477 -0.00147875 57.8682 0.307566 59.2868 0.909452C60.7055 1.51134 61.9945 2.39425 63.08 3.50766C64.1656 4.62107 65.0265 5.94311 65.6133 7.39813C66.2001 8.85316 66.5014 10.4126 66.5 11.9872V54.0128C66.5014 55.5874 66.2001 57.1468 65.6133 58.6019C65.0265 60.0569 64.1656 61.3789 63.08 62.4923C61.9945 63.6058 60.7055 64.4887 59.2868 65.0906C57.8682 65.6924 56.3477 66.0015 54.8125 66H12.1875C10.6523 66.0015 9.13183 65.6924 7.71318 65.0906C6.29453 64.4887 5.00554 63.6058 3.91997 62.4923C2.83439 61.3789 1.97356 60.0569 1.38672 58.6019C0.799877 57.1468 0.498558 55.5874 0.500005 54.0128V11.9872C0.498558 10.4126 0.799877 8.85316 1.38672 7.39813C1.97356 5.94311 2.83439 4.62107 3.91997 3.50766C5.00554 2.39425 6.29453 1.51134 7.71318 0.909452C9.13183 0.307566 10.6523 -0.00147875 12.1875 5.3197e-06Z" fill="#F0F0F0"/>
<path d="M33.407 10.89C21.967 10.89 22.6814 15.8511 22.6814 15.8511L22.6942 20.9907H33.6111V22.5339H18.358C18.358 22.5339 11.0375 21.7037 11.0375 33.2468C11.0375 44.7898 17.427 44.3805 17.427 44.3805H21.2403V39.024C21.2403 39.024 21.0347 32.6346 27.5277 32.6346C34.0207 32.6346 38.3554 32.6346 38.3554 32.6346C38.3554 32.6346 44.4387 32.7329 44.4387 26.7553C44.4387 20.7776 44.4387 16.8714 44.4387 16.8714C44.4387 16.8714 45.3624 10.89 33.407 10.89ZM27.3874 14.3462C28.4736 14.3462 29.3514 15.2241 29.3514 16.3102C29.3514 17.3964 28.4736 18.2742 27.3874 18.2742C26.3013 18.2742 25.4234 17.3964 25.4234 16.3102C25.4234 15.2241 26.3013 14.3462 27.3874 14.3462Z" fill="url(#paint0_linear_24_1660)"/>
<path d="M33.7319 55.7193C45.1719 55.7193 44.4576 50.7582 44.4576 50.7582L44.4448 45.6186H33.5279V44.0754H48.781C48.781 44.0754 56.1014 44.9056 56.1014 33.3625C56.1014 21.8194 49.712 22.2288 49.712 22.2288H45.8987V27.5852C45.8987 27.5852 46.1042 33.9747 39.6113 33.9747C33.1183 33.9747 28.7836 33.9747 28.7836 33.9747C28.7836 33.9747 22.7002 33.8763 22.7002 39.854C22.7002 45.8317 22.7002 49.7379 22.7002 49.7379C22.7002 49.7379 21.7766 55.7193 33.7319 55.7193ZM39.7515 52.2631C38.6654 52.2631 37.7875 51.3852 37.7875 50.2991C37.7875 49.2129 38.6654 48.335 39.7515 48.335C40.8377 48.335 41.7156 49.2129 41.7156 50.2991C41.7156 51.3852 40.8377 52.2631 39.7515 52.2631Z" fill="url(#paint1_linear_24_1660)"/>
</g>
<defs>
<linearGradient id="paint0_linear_24_1660" x1="15.3683" y1="14.8085" x2="37.651" y2="37.1658" gradientUnits="userSpaceOnUse">
<stop stop-color="#387EB8"/>
<stop offset="1" stop-color="#366994"/>
</linearGradient>
<linearGradient id="paint1_linear_24_1660" x1="29.0757" y1="29.0312" x2="53.0075" y2="51.9591" gradientUnits="userSpaceOnUse">
<stop stop-color="#FFE052"/>
<stop offset="1" stop-color="#FFC331"/>
</linearGradient>
<clipPath id="clip0_24_1660">
<rect width="66" height="66" fill="white" transform="translate(0.5)"/>
</clipPath>
</defs>
</svg>
