<svg width="67" height="66" viewBox="0 0 67 66" fill="none" xmlns="http://www.w3.org/2000/svg">
<g clip-path="url(#clip0_24_1649)">
<path d="M12.1875 5.3197e-06H54.8125C56.3477 -0.00147875 57.8682 0.307566 59.2868 0.909452C60.7055 1.51134 61.9945 2.39425 63.08 3.50766C64.1656 4.62107 65.0265 5.94311 65.6133 7.39813C66.2001 8.85315 66.5014 10.4126 66.5 11.9872V54.0128C66.5014 55.5874 66.2001 57.1468 65.6133 58.6019C65.0265 60.0569 64.1656 61.3789 63.08 62.4923C61.9945 63.6057 60.7055 64.4887 59.2868 65.0905C57.8682 65.6924 56.3477 66.0015 54.8125 66H12.1875C10.6523 66.0015 9.13183 65.6924 7.71318 65.0905C6.29453 64.4887 5.00554 63.6057 3.91997 62.4923C2.83439 61.3789 1.97356 60.0569 1.38672 58.6019C0.799877 57.1468 0.498558 55.5874 0.500005 54.0128V11.9872C0.498558 10.4126 0.799877 8.85315 1.38672 7.39813C1.97356 5.94311 2.83439 4.62107 3.91997 3.50766C5.00554 2.39425 6.29453 1.51134 7.71318 0.909452C9.13183 0.307566 10.6523 -0.00147875 12.1875 5.3197e-06Z" fill="#000B1D"/>
<g clip-path="url(#clip1_24_1649)">
<path d="M33.5 37.3641C36.0341 37.3641 38.0884 35.3363 38.0884 32.835C38.0884 30.3337 36.0341 28.3059 33.5 28.3059C30.9659 28.3059 28.9116 30.3337 28.9116 32.835C28.9116 35.3363 30.9659 37.3641 33.5 37.3641Z" fill="#61DAFB"/>
<path fill-rule="evenodd" clip-rule="evenodd" d="M11.5326 30.009C10.4193 31.001 9.95163 31.9577 9.95163 32.835C9.95163 33.7123 10.4193 34.669 11.5326 35.661C12.6458 36.6529 14.3168 37.5947 16.473 38.4073C20.7779 40.0297 26.7976 41.0554 33.5 41.0554C40.2024 41.0554 46.2221 40.0297 50.527 38.4073C52.6832 37.5947 54.3542 36.6529 55.4674 35.661C56.5807 34.669 57.0484 33.7123 57.0484 32.835C57.0484 31.9577 56.5807 31.001 55.4674 30.009C54.3542 29.0171 52.6832 28.0753 50.527 27.2627C46.2221 25.6403 40.2024 24.6146 33.5 24.6146C26.7976 24.6146 20.7779 25.6403 16.473 27.2627C14.3168 28.0753 12.6458 29.0171 11.5326 30.009ZM15.7079 25.2847C20.3139 23.5488 26.6047 22.4973 33.5 22.4973C40.3953 22.4973 46.6861 23.5488 51.2921 25.2847C53.5915 26.1513 55.5261 27.209 56.9047 28.4374C58.2832 29.6656 59.1934 31.1499 59.1934 32.835C59.1934 34.5201 58.2832 36.0044 56.9047 37.2326C55.5261 38.461 53.5915 39.5187 51.2921 40.3853C46.6861 42.1212 40.3953 43.1727 33.5 43.1727C26.6047 43.1727 20.3139 42.1212 15.7079 40.3853C13.4085 39.5187 11.4739 38.461 10.0953 37.2326C8.71683 36.0044 7.80663 34.5201 7.80663 32.835C7.80663 31.1499 8.71683 29.6656 10.0953 28.4374C11.4739 27.209 13.4085 26.1513 15.7079 25.2847Z" fill="#61DAFB"/>
<path fill-rule="evenodd" clip-rule="evenodd" d="M24.9958 12.6438C23.5688 12.1882 22.4955 12.2667 21.7258 12.7054C20.9561 13.144 20.3505 14.0222 20.0368 15.4699C19.7232 16.9174 19.7324 18.8167 20.0975 21.0661C20.8265 25.5573 22.9364 31.2159 26.2876 36.9452C29.6388 42.6746 33.5485 47.3075 37.1245 50.1762C38.9155 51.613 40.5774 52.5706 42.0042 53.0262C43.4312 53.4819 44.5045 53.4033 45.2742 52.9646C46.0439 52.526 46.6495 51.6478 46.9632 50.2002C47.2769 48.7526 47.2676 46.8533 46.9025 44.6039C46.1735 40.1127 44.0636 34.4541 40.7124 28.7248C37.3612 22.9954 33.4515 18.3625 29.8755 15.4938C28.0845 14.057 26.4227 13.0995 24.9958 12.6438ZM31.2284 13.8508C35.0545 16.9202 39.1224 21.7719 42.5701 27.6662C46.0177 33.5604 48.2405 39.4636 49.0205 44.269C49.4099 46.6678 49.4492 48.8504 49.0607 50.643C48.6723 52.4355 47.8251 53.9557 46.3467 54.7982C44.8682 55.6408 43.1109 55.6048 41.344 55.0406C39.5769 54.4764 37.6816 53.3515 35.7716 51.8192C31.9455 48.7498 27.8776 43.8981 24.43 38.0038C20.9823 32.1096 18.7595 26.2064 17.9795 21.4011C17.5901 19.0022 17.5508 16.8196 17.9393 15.027C18.3277 13.2345 19.1749 11.7143 20.6533 10.8718C22.1318 10.0292 23.8891 10.0652 25.656 10.6294C27.4231 11.1936 29.3184 12.3185 31.2284 13.8508Z" fill="#61DAFB"/>
<path fill-rule="evenodd" clip-rule="evenodd" d="M46.9632 15.4698C46.6495 14.0222 46.0439 13.144 45.2742 12.7054C44.5045 12.2667 43.4312 12.1881 42.0042 12.6438C40.5774 13.0994 38.9156 14.057 37.1245 15.4938C33.5485 18.3625 29.6388 22.9954 26.2876 28.7248C22.9364 34.4541 20.8265 40.1127 20.0975 44.6039C19.7324 46.8533 19.7232 48.7526 20.0368 50.2001C20.3505 51.6478 20.9561 52.526 21.7258 52.9646C22.4955 53.4033 23.5688 53.4818 24.9958 53.0262C26.4227 52.5705 28.0845 51.613 29.8755 50.1762C33.4515 47.3075 37.3612 42.6746 40.7124 36.9452C44.0637 31.2158 46.1736 25.5573 46.9025 21.0661C47.2676 18.8167 47.2769 16.9174 46.9632 15.4698ZM49.0205 21.401C48.2406 26.2064 46.0177 32.1096 42.5701 38.0038C39.1224 43.8981 35.0545 48.7498 31.2284 51.8192C29.3184 53.3515 27.4231 54.4764 25.6561 55.0406C23.8892 55.6048 22.1318 55.6407 20.6533 54.7982C19.1749 53.9557 18.3277 52.4355 17.9393 50.643C17.5508 48.8504 17.5901 46.6678 17.9795 44.2689C18.7595 39.4636 20.9823 33.5604 24.43 27.6661C27.8776 21.7719 31.9456 16.9202 35.7716 13.8508C37.6816 12.3185 39.5769 11.1936 41.344 10.6294C43.1109 10.0651 44.8682 10.0292 46.3467 10.8718C47.8251 11.7143 48.6723 13.2345 49.0607 15.027C49.4492 16.8196 49.4099 19.0022 49.0205 21.401Z" fill="#61DAFB"/>
</g>
</g>
<defs>
<clipPath id="clip0_24_1649">
<rect width="66" height="66" fill="white" transform="translate(0.5)"/>
</clipPath>
<clipPath id="clip1_24_1649">
<rect width="51.48" height="45.21" fill="white" transform="translate(7.76 10.23)"/>
</clipPath>
</defs>
</svg>
